<?xml version="1.0" standalone="no"?>
<!DOCTYPE svg PUBLIC "-//W3C//DTD SVG 20010904//EN"
 "http://www.w3.org/TR/2001/REC-SVG-20010904/DTD/svg10.dtd">
<svg version="1.0" xmlns="http://www.w3.org/2000/svg"
 width="1451.000000pt" height="1500.000000pt" viewBox="0 0 1451.000000 1500.000000"
 preserveAspectRatio="xMidYMid meet">

<g transform="translate(0.000000,1500.000000) scale(0.100000,-0.100000)"
fill="#000000" stroke="none">
<path d="M6510 11851 c0 -5 -25 -12 -55 -16 -30 -3 -55 -11 -55 -16 0 -5 -18
-9 -40 -9 -26 0 -40 -5 -40 -13 0 -11 -24 -17 -87 -20 -7 0 -13 -4 -13 -9 0
-4 -9 -8 -19 -8 -11 0 -26 -7 -35 -15 -8 -8 -31 -15 -50 -15 -25 0 -36 -4 -36
-15 0 -10 -10 -15 -30 -15 -16 0 -30 -4 -30 -10 0 -5 -11 -10 -24 -10 -14 0
-31 -7 -40 -15 -8 -8 -19 -15 -25 -15 -8 0 -11 -134 -11 -440 l0 -440 -25 0
c-16 0 -25 -6 -25 -15 0 -8 -7 -15 -15 -15 -8 0 -15 -4 -15 -10 0 -5 -11 -10
-25 -10 -16 0 -25 -6 -25 -15 0 -8 -7 -15 -15 -15 -8 0 -15 -7 -15 -16 0 -8
-5 -12 -10 -9 -6 3 -13 -1 -16 -9 -3 -9 -17 -16 -30 -16 -13 0 -24 -5 -24 -11
0 -14 -55 -69 -69 -69 -6 0 -11 -7 -11 -15 0 -9 -9 -15 -25 -15 -14 0 -28 7
-31 15 -4 10 -20 15 -45 15 -21 0 -39 4 -39 9 0 4 -21 11 -47 14 -26 3 -49 10
-51 16 -2 6 -21 11 -43 11 -28 0 -39 4 -39 15 0 11 -13 15 -52 15 -38 0 -49 3
-38 10 11 7 4 10 -27 10 -23 0 -48 7 -57 15 -8 8 -31 15 -51 15 -22 0 -38 6
-41 15 -4 10 -20 15 -45 15 -21 0 -39 5 -39 10 0 6 -3 9 -7 8 -18 -5 -93 13
-93 22 0 6 -17 10 -38 10 -30 0 -45 -7 -65 -30 -15 -16 -27 -34 -27 -40 0 -5
-7 -10 -15 -10 -8 0 -15 -5 -15 -11 0 -7 -11 -21 -24 -33 -13 -11 -26 -30 -28
-41 -2 -11 -10 -19 -16 -17 -7 1 -12 -5 -12 -13 0 -8 -4 -15 -9 -15 -5 0 -12
-11 -15 -25 -4 -14 -11 -25 -16 -25 -6 0 -10 -7 -10 -15 0 -8 -7 -15 -15 -15
-9 0 -15 -9 -15 -25 0 -14 -4 -25 -10 -25 -5 0 -10 -7 -10 -15 0 -8 -7 -15
-15 -15 -8 0 -15 -9 -15 -20 0 -11 -7 -23 -15 -26 -8 -4 -15 -12 -15 -20 0 -8
-4 -14 -10 -14 -5 0 -10 -11 -10 -24 0 -13 -7 -26 -15 -30 -8 -3 -15 -10 -15
-16 0 -5 7 -10 15 -10 8 0 15 -7 15 -15 0 -8 5 -15 10 -15 6 0 10 -11 10 -25
0 -16 6 -25 15 -25 8 0 15 -7 15 -15 0 -8 4 -15 9 -15 5 0 13 -10 17 -22 8
-26 28 -48 43 -48 6 0 11 -7 11 -15 0 -8 4 -15 9 -15 5 0 12 -11 15 -25 4 -14
11 -25 16 -25 6 0 10 -7 10 -15 0 -8 7 -15 15 -15 8 0 15 -7 15 -15 0 -8 4
-15 9 -15 5 0 12 -11 15 -25 4 -14 11 -25 16 -25 6 0 10 -7 10 -15 0 -8 7 -15
15 -15 8 0 15 -5 15 -11 0 -6 6 -17 13 -24 31 -35 37 -45 37 -60 0 -8 5 -14
12 -13 6 2 14 -6 16 -17 2 -11 15 -30 28 -42 13 -12 24 -27 24 -33 0 -5 7 -10
15 -10 9 0 15 -9 15 -25 0 -14 5 -25 10 -25 6 0 10 -13 10 -30 0 -16 -4 -30
-10 -30 -5 0 -10 -18 -10 -40 0 -29 -4 -40 -15 -40 -11 0 -15 -11 -15 -39 0
-22 -5 -41 -11 -43 -6 -2 -13 -25 -16 -51 -3 -26 -10 -47 -14 -47 -5 0 -9 -19
-9 -43 0 -50 -13 -67 -52 -67 -18 0 -28 -5 -28 -15 0 -11 -11 -15 -39 -15 -22
0 -41 -4 -43 -9 -1 -6 -19 -13 -38 -16 -19 -3 -36 -10 -38 -16 -2 -5 -21 -9
-43 -9 -28 0 -39 -4 -39 -15 0 -11 -11 -15 -40 -15 -22 0 -40 -4 -40 -10 0 -5
-18 -13 -40 -16 -22 -4 -37 -10 -34 -15 3 -5 -11 -9 -30 -9 -20 0 -36 -4 -36
-10 0 -5 -12 -12 -27 -15 -54 -11 -133 -39 -133 -47 0 -4 -18 -8 -40 -8 -29 0
-40 -4 -40 -15 0 -8 -8 -15 -19 -15 -15 0 -19 -10 -25 -57 -9 -81 2 -486 14
-518 5 -14 10 -40 10 -56 0 -26 3 -29 31 -29 30 0 114 -23 151 -41 10 -5 29
-9 42 -9 14 0 29 -6 33 -14 4 -7 26 -16 48 -19 66 -9 145 -30 145 -39 0 -4 13
-8 29 -8 16 0 36 -6 43 -14 8 -7 27 -16 43 -19 66 -13 125 -32 125 -39 0 -5
18 -8 39 -8 22 0 46 -7 55 -15 8 -8 19 -15 24 -15 5 0 12 -23 14 -52 3 -29 11
-54 17 -56 6 -2 11 -19 11 -39 0 -19 7 -41 15 -49 8 -9 15 -29 15 -45 0 -16 4
-29 9 -29 5 0 11 -18 15 -40 3 -22 11 -40 16 -40 6 0 10 -18 10 -40 0 -29 -4
-40 -15 -40 -8 0 -15 -7 -15 -15 0 -8 -4 -15 -10 -15 -5 0 -10 -11 -10 -25 0
-16 -6 -25 -15 -25 -8 0 -15 -7 -15 -15 0 -8 -4 -15 -10 -15 -5 0 -12 -11 -16
-25 -3 -14 -10 -23 -14 -20 -4 3 -10 -5 -13 -16 -3 -12 -10 -18 -16 -14 -6 3
-11 -1 -11 -9 0 -9 -6 -16 -12 -16 -9 0 -8 -4 2 -10 13 -8 12 -10 -2 -10 -10
0 -18 -7 -18 -15 0 -8 -4 -15 -10 -15 -5 0 -10 -7 -10 -15 0 -8 -7 -15 -15
-15 -8 0 -15 -9 -15 -20 0 -12 -11 -31 -25 -44 -14 -13 -25 -33 -25 -45 0 -12
-6 -21 -15 -21 -8 0 -15 -7 -15 -15 0 -8 -6 -15 -13 -15 -7 0 -14 -10 -14 -22
-1 -13 -7 -24 -13 -26 -5 -2 -10 -10 -10 -18 0 -8 -7 -14 -15 -14 -8 0 -15 -7
-15 -15 0 -8 -4 -15 -10 -15 -5 0 -10 -9 -10 -20 0 -11 -7 -23 -15 -26 -8 -4
-15 -12 -15 -20 0 -8 -7 -14 -15 -14 -9 0 -15 -9 -15 -24 0 -13 7 -26 15 -30
8 -3 15 -12 15 -21 0 -9 11 -28 25 -43 14 -15 25 -35 25 -44 0 -10 7 -18 15
-18 8 0 15 -6 15 -14 0 -8 5 -16 10 -18 6 -2 12 -13 13 -26 0 -12 7 -22 14
-22 7 0 13 -7 13 -15 0 -8 7 -15 15 -15 8 0 15 -9 15 -20 0 -11 4 -20 9 -20 5
0 13 -9 16 -20 4 -11 11 -18 16 -15 5 4 9 1 9 -5 0 -6 11 -21 25 -34 14 -13
25 -28 25 -34 0 -5 7 -12 15 -16 8 -3 15 -15 15 -26 0 -11 5 -20 11 -20 14 0
39 -25 39 -39 0 -14 57 -14 65 -1 3 6 20 10 36 10 17 0 32 6 35 15 4 10 20 15
44 15 21 0 43 7 50 15 7 8 25 15 41 15 16 0 29 5 29 10 0 6 13 10 29 10 37 0
62 10 55 21 -3 5 13 9 35 9 22 0 46 7 55 15 8 8 26 15 40 15 14 0 26 5 26 10
0 6 13 10 29 10 37 0 62 10 55 21 -3 5 11 9 31 9 20 0 43 7 51 15 9 8 31 15
49 15 19 0 37 5 40 10 3 6 17 10 31 10 13 0 24 -4 24 -10 0 -5 7 -10 15 -10 8
0 15 -7 15 -15 0 -8 7 -15 15 -15 8 0 15 -7 15 -15 0 -8 3 -14 8 -14 24 4 42
-3 42 -16 0 -8 7 -15 15 -15 8 0 15 -4 15 -10 0 -5 7 -10 15 -10 8 0 15 -4 15
-9 0 -5 10 -13 23 -17 12 -4 32 -17 44 -30 12 -13 31 -24 43 -24 11 0 20 -7
20 -15 0 -8 4 -15 8 -15 5 0 12 -183 16 -407 4 -279 10 -416 18 -434 9 -20 21
-29 50 -33 21 -4 38 -11 38 -16 0 -6 10 -10 23 -10 12 0 31 -7 41 -15 11 -8
32 -15 48 -15 15 0 28 -4 28 -10 0 -5 10 -10 23 -10 13 0 32 -7 43 -15 10 -8
35 -15 54 -15 19 0 46 -7 60 -15 14 -8 37 -14 53 -15 15 0 27 -4 27 -9 0 -10
108 -22 138 -14 13 3 22 13 22 24 0 11 5 19 10 19 6 0 10 7 10 15 0 9 6 18 14
21 7 3 22 21 32 40 10 19 22 34 26 34 5 0 8 7 8 15 0 8 6 15 14 15 8 0 16 10
20 23 3 12 14 32 26 44 11 12 20 27 20 33 0 5 7 10 15 10 9 0 15 9 15 25 0 16
6 25 15 25 8 0 15 7 15 15 0 8 4 15 9 15 5 0 12 11 15 25 4 14 11 25 16 25 6
0 10 7 10 15 0 8 7 15 15 15 8 0 15 7 15 15 0 8 4 15 10 15 5 0 12 11 16 25 3
14 10 25 15 25 5 0 9 7 9 15 0 8 4 15 9 15 5 0 13 10 17 22 8 26 28 48 43 48
6 0 11 7 11 15 0 8 7 15 15 15 8 0 15 6 15 13 0 8 14 11 45 9 25 -2 45 -8 45
-13 0 -5 36 -9 81 -9 47 0 78 4 74 9 -3 6 3 10 12 11 10 1 53 3 96 6 66 5 77
3 77 -10 0 -9 5 -16 10 -16 6 0 10 -7 10 -15 0 -8 7 -15 15 -15 8 0 15 -7 15
-17 0 -9 3 -13 7 -10 6 7 27 -23 39 -55 3 -10 13 -18 20 -18 8 0 14 -7 14 -15
0 -8 4 -15 9 -15 5 0 12 -11 15 -25 4 -14 11 -25 16 -25 6 0 10 -7 10 -15 0
-8 7 -15 15 -15 8 0 15 -7 15 -15 0 -8 4 -15 9 -15 5 0 12 -11 15 -25 4 -14
11 -25 16 -25 6 0 10 -7 10 -16 0 -8 4 -13 8 -10 10 6 38 -25 47 -53 3 -12 11
-21 16 -21 5 0 9 -7 9 -15 0 -8 7 -15 15 -15 8 0 15 -7 15 -15 0 -8 4 -15 9
-15 5 0 12 -11 15 -25 4 -14 11 -25 16 -25 6 0 10 -7 10 -15 0 -8 7 -15 15
-15 8 0 15 -6 15 -13 0 -27 37 -57 69 -57 17 0 31 5 31 10 0 6 23 10 51 10 31
0 56 6 65 15 9 8 28 15 44 15 16 0 30 4 32 9 2 6 19 13 38 16 19 3 37 11 41
16 3 6 9 10 13 10 37 -5 66 1 66 14 0 10 11 15 35 15 19 0 35 4 35 9 0 5 14
12 30 16 17 4 30 11 30 16 0 5 12 9 26 9 55 0 54 -8 54 463 l0 435 25 6 c14 4
25 11 25 16 0 6 7 10 15 10 8 0 15 5 15 10 0 6 7 10 15 10 8 0 27 12 43 28 35
32 61 50 85 58 9 4 17 13 17 21 0 8 4 12 8 9 9 -6 42 29 42 44 0 16 107 12
124 -5 8 -8 31 -15 51 -15 20 0 43 -7 51 -15 9 -8 26 -15 39 -15 13 0 27 -4
30 -10 3 -5 24 -10 45 -10 21 0 45 -7 54 -15 8 -8 31 -15 50 -15 20 0 36 -4
36 -10 0 -5 18 -13 40 -16 22 -4 43 -11 46 -15 3 -5 20 -9 39 -9 18 0 40 -7
49 -15 8 -8 30 -15 49 -15 20 0 37 -5 39 -10 2 -6 21 -13 43 -17 22 -3 43 -10
46 -15 8 -13 49 12 49 29 0 7 7 13 15 13 8 0 15 5 15 11 0 7 11 22 25 35 14
13 25 31 25 41 0 14 2 15 9 5 6 -10 10 -7 15 12 3 14 11 26 16 26 6 0 10 7 10
15 0 8 6 15 13 15 12 0 28 24 43 63 3 9 10 17 15 17 5 0 9 7 9 15 0 8 8 15 18
15 14 0 15 2 2 10 -10 6 -11 10 -2 10 6 0 12 7 12 15 0 8 4 15 8 15 5 0 17 18
28 40 10 22 25 40 32 40 7 0 12 13 12 30 0 18 5 29 12 27 19 -3 22 42 4 49 -9
3 -16 11 -16 18 0 6 -11 23 -25 38 -14 15 -25 32 -25 38 0 5 -7 10 -15 10 -8
0 -15 9 -15 20 0 12 -11 31 -25 44 -14 13 -25 28 -25 34 0 5 -7 12 -15 16 -8
3 -15 15 -15 26 0 11 -7 20 -15 20 -8 0 -15 7 -15 15 0 8 -4 15 -9 15 -5 0
-13 9 -16 20 -4 11 -11 18 -16 15 -5 -4 -9 2 -9 13 0 11 -11 27 -24 38 -14 10
-27 28 -31 41 -3 13 -10 23 -15 23 -6 0 -10 7 -10 15 0 8 -7 15 -15 15 -8 0
-15 7 -15 15 0 8 -4 15 -9 15 -5 0 -12 11 -15 25 -4 14 -11 25 -16 25 -6 0
-10 7 -10 15 0 8 -7 15 -15 15 -8 0 -15 7 -15 15 0 8 -4 15 -9 15 -20 0 -29
56 -17 104 7 25 15 43 19 40 4 -4 7 9 7 28 0 23 6 38 15 42 10 3 15 19 15 45
0 22 4 42 9 45 5 3 12 31 16 61 3 30 11 55 16 55 5 0 9 7 9 15 0 8 5 15 11 15
6 0 17 7 25 15 9 8 29 15 45 15 16 0 29 4 29 9 0 5 18 11 40 15 22 3 40 11 40
16 0 6 18 10 40 10 26 0 40 5 40 13 0 8 15 14 37 15 21 2 40 7 43 11 3 4 22
11 43 15 20 4 37 11 37 16 0 6 16 10 36 10 19 0 42 7 50 15 9 8 28 15 44 15
16 0 30 4 32 9 2 6 19 13 38 16 19 3 36 10 38 16 2 5 21 9 43 9 28 0 39 4 39
15 0 8 3 14 8 14 44 -7 42 -19 42 316 0 203 -4 315 -10 315 -5 0 -10 7 -10 15
0 11 -11 15 -39 15 -22 0 -41 4 -43 9 -1 6 -19 13 -38 16 -19 3 -36 10 -38 16
-2 5 -24 9 -48 9 -32 0 -44 4 -44 15 0 11 -12 15 -42 15 -24 0 -52 7 -62 15
-11 8 -33 15 -49 15 -16 0 -26 4 -22 10 4 6 -12 10 -39 10 -34 0 -46 4 -46 15
0 11 -12 15 -46 15 -27 0 -43 4 -39 10 4 6 -10 10 -34 10 -22 0 -46 7 -55 15
-8 8 -26 15 -40 15 -14 0 -26 5 -26 11 0 5 -4 7 -10 4 -5 -3 -10 -1 -10 4 0 6
-7 11 -16 11 -26 0 -44 27 -44 65 0 20 -7 43 -15 51 -8 9 -15 28 -15 44 0 15
-7 41 -15 56 -8 16 -15 37 -15 46 0 9 -4 20 -10 23 -5 3 -10 17 -10 31 0 14
-7 32 -15 40 -8 9 -15 22 -15 29 0 7 7 20 15 29 8 8 15 20 15 26 0 6 6 18 13
25 29 33 37 45 37 55 0 5 7 10 15 10 8 0 15 7 15 15 0 8 4 15 9 15 5 0 12 11
15 25 4 14 11 25 16 25 6 0 10 7 10 15 0 8 7 15 15 15 9 0 15 9 15 25 0 16 6
25 16 25 8 0 12 5 9 10 -3 6 0 13 8 16 9 3 18 16 21 30 4 13 11 24 16 24 6 0
10 5 10 10 0 6 12 24 28 41 15 17 26 36 24 41 -1 4 5 11 13 14 8 4 15 12 15
20 0 8 4 14 9 14 5 0 13 10 17 23 4 12 17 32 30 44 13 12 25 27 26 34 2 7 13
23 26 35 21 20 33 92 13 80 -5 -3 -12 5 -15 19 -4 14 -11 25 -16 25 -6 0 -10
11 -10 25 0 16 -6 25 -15 25 -8 0 -15 7 -15 15 0 8 -4 15 -9 15 -5 0 -12 11
-15 25 -4 14 -11 25 -16 25 -6 0 -10 7 -10 15 0 8 -7 15 -15 15 -8 0 -15 7
-15 15 0 8 -4 15 -9 15 -5 0 -13 10 -17 22 -8 26 -28 48 -43 48 -6 0 -11 7
-11 15 0 8 -4 15 -10 15 -5 0 -10 7 -10 15 0 9 -7 18 -15 21 -8 4 -15 15 -15
25 0 10 -7 19 -15 19 -8 0 -15 5 -15 11 0 14 -25 39 -39 39 -6 0 -11 7 -11 15
0 9 -9 15 -24 15 -13 0 -26 -7 -30 -15 -3 -9 -19 -15 -41 -15 -19 0 -35 -4
-35 -10 0 -5 -18 -10 -40 -10 -29 0 -40 -4 -40 -15 0 -11 -11 -15 -36 -15 -19
0 -42 -7 -50 -15 -9 -8 -29 -15 -45 -15 -16 0 -29 -4 -29 -10 0 -5 -18 -10
-40 -10 -29 0 -40 -4 -40 -15 0 -11 -11 -15 -36 -15 -19 0 -42 -7 -50 -15 -9
-8 -29 -15 -45 -15 -16 0 -29 -4 -29 -10 0 -5 -18 -10 -40 -10 -29 0 -40 -4
-40 -15 0 -11 -11 -15 -36 -15 -19 0 -42 -7 -50 -15 -9 -8 -29 -15 -45 -15
-19 0 -29 5 -29 15 0 8 -7 15 -15 15 -8 0 -15 7 -15 15 0 8 -5 15 -11 15 -6 0
-17 6 -24 13 -33 29 -45 37 -55 37 -5 0 -10 7 -10 15 0 9 -9 15 -24 15 -13 0
-27 7 -30 16 -3 8 -10 12 -16 9 -5 -3 -10 1 -10 9 0 10 -9 16 -25 16 -16 0
-25 6 -25 15 0 8 -7 15 -16 15 -43 0 -44 10 -44 399 0 241 -4 371 -10 371 -5
0 -10 25 -10 55 0 42 -3 55 -15 55 -8 0 -15 5 -15 10 0 6 -11 10 -25 10 -14 0
-28 7 -31 15 -4 9 -19 15 -40 15 -19 0 -34 4 -34 9 0 9 -57 27 -72 23 -5 -1
-8 2 -8 8 0 5 -16 10 -35 10 -22 0 -38 6 -41 15 -4 10 -20 15 -49 15 -24 0
-45 4 -47 10 -1 5 -23 13 -48 16 -25 3 -46 10 -48 15 -2 5 -33 9 -68 9 -62 0
-64 -1 -64 -25 0 -16 -6 -25 -15 -25 -8 0 -15 -7 -15 -15 0 -8 -4 -15 -10 -15
-5 0 -12 -11 -16 -25 -3 -14 -10 -25 -15 -25 -5 0 -9 -7 -9 -15 0 -8 -7 -15
-15 -15 -8 0 -15 -7 -15 -15 0 -8 -4 -15 -9 -15 -5 0 -13 -10 -17 -22 -4 -13
-17 -33 -30 -45 -13 -12 -24 -27 -24 -33 0 -6 -11 -21 -25 -34 -14 -13 -25
-28 -25 -35 0 -6 -7 -11 -15 -11 -9 0 -15 -9 -15 -24 0 -13 -7 -27 -16 -30 -8
-3 -12 -10 -9 -16 3 -5 -1 -10 -9 -10 -10 0 -16 -9 -16 -25 0 -16 -6 -25 -15
-25 -8 0 -15 -6 -15 -14 0 -8 -7 -16 -15 -20 -8 -3 -15 -12 -15 -21 0 -8 -4
-15 -10 -15 -5 0 -10 -9 -10 -20 0 -11 -7 -20 -15 -20 -8 0 -15 -7 -15 -15 0
-8 -4 -15 -8 -15 -5 0 -14 -11 -20 -25 l-12 -25 -205 0 c-166 0 -209 3 -221
14 -8 8 -14 17 -14 21 0 3 -10 16 -22 28 -26 25 -46 54 -54 80 -4 9 -13 17
-20 17 -8 0 -14 7 -14 15 0 8 -4 15 -9 15 -5 0 -18 18 -29 40 -10 22 -22 36
-26 33 -4 -4 -9 3 -13 15 -3 12 -9 19 -14 16 -5 -3 -9 2 -9 10 0 9 -5 16 -11
16 -5 0 -7 5 -4 10 3 6 1 10 -4 10 -6 0 -11 5 -11 10 0 6 -11 21 -25 34 -14
13 -25 28 -25 35 0 6 -5 11 -11 11 -5 0 -7 5 -4 10 3 6 1 10 -4 10 -6 0 -11 7
-11 15 0 8 -7 15 -15 15 -8 0 -15 6 -15 14 0 8 -5 16 -10 18 -6 2 -12 13 -13
25 0 12 -4 21 -7 20 -9 -3 -70 60 -70 72 0 6 -6 11 -12 11 -9 0 -8 4 2 10 13
8 12 10 -2 10 -10 0 -18 7 -18 15 0 8 -4 15 -10 15 -5 0 -10 -4 -10 -9z m610
-1731 c0 -6 28 -10 65 -10 51 0 65 -3 65 -15 0 -11 11 -15 40 -15 22 0 40 -4
40 -10 0 -5 13 -10 29 -10 16 0 34 -6 40 -14 7 -8 23 -17 36 -20 14 -4 25 -11
25 -16 0 -6 7 -10 15 -10 8 0 15 -4 15 -9 0 -5 11 -12 25 -15 14 -4 25 -11 25
-16 0 -6 7 -10 15 -10 8 0 15 -7 15 -15 0 -8 5 -15 11 -15 6 0 24 -13 40 -29
16 -16 29 -34 29 -40 0 -6 5 -11 11 -11 14 0 39 -25 39 -39 0 -6 6 -11 14 -11
8 0 16 -7 20 -15 4 -11 14 -13 38 -8 18 3 35 10 36 15 5 11 229 10 237 -1 3
-5 30 -13 60 -16 30 -4 55 -11 55 -16 0 -5 11 -9 24 -9 13 0 29 -7 36 -15 7
-8 21 -15 32 -15 17 0 27 -5 61 -36 7 -6 23 -15 35 -18 12 -4 22 -12 22 -17 0
-5 5 -9 11 -9 14 0 69 -55 69 -69 0 -6 5 -11 11 -11 14 0 39 -25 39 -39 0 -6
7 -11 15 -11 8 0 15 -7 15 -15 0 -8 4 -15 9 -15 5 0 12 -11 15 -25 4 -14 11
-25 16 -25 6 0 10 -14 10 -31 0 -24 4 -30 15 -25 11 4 15 -2 15 -24 0 -17 4
-30 10 -30 5 0 13 -18 16 -40 4 -22 10 -40 15 -40 5 0 9 -7 9 -15 0 -8 7 -15
15 -15 8 0 15 -4 15 -8 0 -4 15 -9 33 -10 17 -1 37 -9 43 -17 6 -8 21 -15 33
-15 11 0 21 -4 21 -9 0 -5 11 -12 25 -15 14 -4 25 -11 25 -16 0 -6 7 -10 15
-10 8 0 15 -7 15 -15 0 -8 9 -15 20 -15 11 0 23 -7 26 -15 4 -8 12 -15 20 -15
8 0 14 -4 14 -10 0 -5 7 -10 15 -10 8 0 15 -5 15 -11 0 -7 11 -22 25 -35 14
-13 25 -30 25 -39 0 -8 5 -15 10 -15 6 0 14 -8 17 -17 4 -10 17 -29 30 -43 13
-14 23 -33 23 -42 0 -10 6 -18 13 -18 7 0 14 -12 15 -27 1 -15 6 -29 11 -32 5
-3 12 -21 16 -38 3 -18 11 -33 16 -33 5 0 9 -29 9 -64 0 -36 5 -66 10 -68 15
-5 15 -171 1 -176 -7 -2 -11 -33 -11 -73 0 -39 -4 -69 -10 -69 -5 0 -13 -18
-16 -40 -4 -22 -10 -40 -15 -40 -5 0 -9 -11 -9 -25 0 -14 -7 -28 -15 -31 -8
-4 -15 -15 -15 -26 0 -12 -11 -31 -25 -44 -14 -13 -25 -30 -25 -39 0 -9 -7
-18 -15 -21 -8 -4 -15 -12 -15 -18 0 -7 -11 -19 -24 -26 -15 -7 -26 -23 -28
-39 -2 -18 -10 -27 -25 -29 -13 -2 -23 -8 -23 -13 0 -5 -7 -9 -15 -9 -8 0 -15
-7 -15 -15 0 -8 -9 -15 -20 -15 -12 0 -31 -11 -44 -25 -13 -14 -33 -25 -45
-25 -12 0 -21 -6 -21 -15 0 -10 -10 -15 -30 -15 -20 0 -30 -5 -30 -15 0 -11
-11 -15 -40 -15 -22 0 -40 -4 -40 -10 0 -5 -22 -10 -50 -10 -38 0 -50 -4 -50
-15 0 -12 -20 -15 -120 -15 l-120 0 0 -25 c0 -16 -6 -25 -15 -25 -8 0 -15 -9
-15 -20 0 -12 -11 -31 -25 -44 -14 -13 -25 -31 -25 -40 0 -9 -7 -19 -15 -22
-8 -4 -15 -10 -15 -15 0 -13 -136 -149 -149 -149 -6 0 -11 -7 -11 -15 0 -8 -7
-15 -15 -15 -8 0 -15 -4 -15 -9 0 -5 -10 -13 -22 -17 -13 -4 -33 -17 -45 -30
-12 -13 -31 -24 -41 -24 -11 0 -22 -7 -26 -15 -3 -8 -17 -15 -31 -15 -14 0
-25 -4 -25 -10 0 -5 -11 -10 -24 -10 -14 0 -31 -7 -40 -15 -8 -8 -30 -15 -49
-15 -20 0 -37 -6 -39 -12 -3 -9 -34 -14 -94 -16 -49 -2 -99 -8 -112 -15 -17
-8 -25 -8 -30 0 -4 6 -50 12 -111 14 -72 3 -106 8 -109 17 -2 6 -19 12 -39 12
-19 0 -41 7 -49 15 -9 8 -26 15 -40 15 -13 0 -24 5 -24 10 0 6 -11 10 -25 10
-14 0 -28 7 -31 15 -4 8 -15 15 -26 15 -10 0 -30 12 -43 26 -13 14 -33 26 -44
27 -12 1 -21 7 -21 14 0 7 -7 13 -15 13 -8 0 -15 7 -15 15 0 8 -4 14 -8 13
-11 -4 -122 108 -122 121 0 18 -119 14 -126 -4 -5 -12 -29 -15 -129 -15 -97 0
-127 3 -139 15 -10 10 -35 15 -74 15 -39 0 -62 4 -65 13 -2 7 -20 14 -38 15
-19 1 -35 7 -37 12 -2 6 -17 10 -33 10 -19 0 -29 5 -29 15 0 9 -9 15 -24 15
-13 0 -26 3 -28 8 -4 10 -67 42 -84 42 -8 0 -14 5 -14 10 0 6 -8 14 -17 17
-18 7 -29 15 -58 41 -7 6 -18 12 -24 12 -6 0 -11 7 -11 15 0 8 -5 15 -11 15
-14 0 -69 55 -69 69 0 6 -7 11 -15 11 -8 0 -15 7 -15 15 0 8 -4 15 -10 15 -5
0 -12 10 -15 23 -4 13 -17 31 -31 41 -13 11 -24 29 -24 42 0 15 -6 24 -15 24
-8 0 -15 7 -15 15 0 8 -4 15 -10 15 -5 0 -10 11 -10 25 0 16 -6 25 -15 25 -8
0 -14 3 -14 8 5 30 -3 72 -14 72 -8 0 -14 15 -15 38 -2 20 -7 39 -12 40 -6 2
-10 25 -10 50 0 26 -7 56 -16 67 -12 16 -14 52 -14 187 1 93 6 168 11 170 5 2
12 27 16 56 3 28 10 52 14 52 5 0 9 11 9 25 0 14 7 28 15 31 17 7 21 54 5 54
-5 0 -10 5 -10 10 0 6 7 10 15 10 8 0 15 7 15 15 0 8 5 15 10 15 6 0 10 7 10
15 0 8 4 15 9 15 5 0 12 11 15 25 4 14 11 25 16 25 6 0 10 5 10 10 0 6 18 30
40 52 22 23 40 50 40 60 0 10 4 18 10 18 15 0 50 33 44 42 -3 4 0 8 7 8 6 0
22 11 34 24 12 13 32 27 43 31 12 3 22 11 22 16 0 5 7 9 15 9 8 0 15 6 15 14
0 8 11 17 25 20 14 4 25 11 25 17 0 6 5 7 10 4 6 -3 13 1 16 9 3 9 17 16 30
16 15 0 24 6 24 15 0 9 9 15 24 15 13 0 26 4 28 10 3 8 32 17 66 19 7 1 12 14
12 31 0 18 6 33 15 36 10 4 15 20 15 50 0 24 4 44 9 44 5 0 12 16 15 35 4 19
11 35 16 35 6 0 10 9 10 20 0 11 7 23 15 26 8 4 15 15 15 25 0 10 4 19 10 19
5 0 12 11 16 25 3 14 10 25 15 25 5 0 9 7 9 16 0 10 6 14 15 10 10 -4 15 1 15
16 0 11 11 31 25 44 14 13 25 28 25 34 0 5 7 10 15 10 8 0 15 7 15 16 0 8 5
12 10 9 6 -3 13 1 16 9 3 9 17 16 30 16 13 0 24 4 24 10 0 15 33 50 47 50 7 0
13 5 13 10 0 6 9 10 19 10 10 0 21 7 25 15 3 8 15 15 26 15 12 0 28 7 36 15 9
8 24 15 35 15 11 0 17 5 14 10 -4 6 10 10 35 10 24 0 48 7 56 15 10 10 35 15
75 15 33 0 59 4 59 10 0 6 40 10 100 10 60 0 100 -4 100 -10z m-1630 -1300 c0
-5 -4 -10 -10 -10 -5 0 -10 5 -10 10 0 6 5 10 10 10 6 0 10 -4 10 -10z m-80
-110 c0 -5 -4 -10 -10 -10 -5 0 -10 5 -10 10 0 6 5 10 10 10 6 0 10 -4 10 -10z
m-30 -30 c0 -5 -5 -10 -11 -10 -5 0 -7 5 -4 10 3 6 8 10 11 10 2 0 4 -4 4 -10z
m-80 -100 c0 -5 -5 -10 -11 -10 -5 0 -7 5 -4 10 3 6 8 10 11 10 2 0 4 -4 4
-10z m-20 -30 c0 -5 -4 -10 -10 -10 -5 0 -10 5 -10 10 0 6 5 10 10 10 6 0 10
-4 10 -10z m-30 -30 c0 -5 -2 -10 -4 -10 -3 0 -8 5 -11 10 -3 6 -1 10 4 10 6
0 11 -4 11 -10z m-80 -100 c0 -5 -4 -10 -10 -10 -5 0 -10 5 -10 10 0 6 5 10
10 10 6 0 10 -4 10 -10z m-20 -30 c0 -5 -4 -10 -10 -10 -5 0 -10 5 -10 10 0 6
5 10 10 10 6 0 10 -4 10 -10z m-110 -130 c0 -5 -4 -10 -10 -10 -5 0 -10 5 -10
10 0 6 5 10 10 10 6 0 10 -4 10 -10z m-110 -140 c0 -5 -2 -10 -4 -10 -3 0 -8
5 -11 10 -3 6 -1 10 4 10 6 0 11 -4 11 -10z m-20 -20 c0 -5 -4 -10 -10 -10 -5
0 -10 5 -10 10 0 6 5 10 10 10 6 0 10 -4 10 -10z m-80 -104 c0 -11 -19 -15
-25 -6 -3 5 1 10 9 10 9 0 16 -2 16 -4z"/>
<path d="M6910 9800 c0 -5 -11 -10 -25 -10 -14 0 -42 -7 -62 -15 -19 -8 -43
-15 -53 -15 -10 0 -20 -7 -24 -15 -3 -8 -12 -15 -21 -15 -9 0 -26 -11 -39 -25
-13 -14 -28 -25 -35 -25 -6 0 -11 -7 -11 -15 0 -8 -5 -15 -11 -15 -6 0 -24
-13 -40 -29 -16 -16 -29 -34 -29 -40 0 -6 -4 -11 -10 -11 -5 0 -12 -11 -16
-25 -3 -14 -10 -25 -14 -25 -5 0 -12 -9 -15 -20 -4 -11 -11 -18 -16 -15 -5 4
-9 -10 -9 -29 0 -20 -4 -36 -9 -36 -6 0 -13 -31 -17 -70 -3 -38 -10 -70 -15
-70 -4 0 -9 -35 -11 -77 l-3 -78 -50 -3 c-27 -2 -53 -8 -56 -14 -4 -6 -23 -11
-43 -11 -22 -1 -36 -6 -36 -14 0 -8 -14 -13 -40 -13 -29 0 -40 -4 -40 -15 0
-9 -9 -15 -21 -15 -12 0 -32 -11 -45 -25 -13 -14 -32 -25 -44 -25 -11 0 -20
-7 -20 -15 0 -8 -5 -15 -11 -15 -6 0 -24 -13 -40 -29 -16 -16 -29 -34 -29 -40
0 -6 -6 -11 -13 -11 -8 0 -20 -11 -27 -25 -7 -14 -19 -25 -26 -25 -7 0 -14
-12 -16 -27 -2 -16 -8 -27 -15 -26 -8 2 -13 -8 -13 -27 0 -17 -4 -30 -10 -30
-5 0 -10 -11 -10 -25 0 -15 -6 -25 -14 -25 -10 0 -16 -14 -18 -42 -2 -28 -7
-42 -15 -40 -10 1 -13 -37 -13 -167 0 -141 2 -170 15 -175 10 -3 15 -19 15
-46 0 -26 5 -40 13 -40 7 0 13 -10 14 -22 1 -11 7 -24 13 -28 7 -4 11 -10 11
-14 -4 -28 1 -46 14 -46 8 0 15 -7 15 -15 0 -9 11 -26 25 -39 14 -13 25 -26
25 -30 0 -12 57 -66 69 -66 6 0 11 -7 11 -15 0 -8 5 -15 11 -15 7 0 22 -11 35
-25 13 -14 30 -25 39 -25 9 0 18 -7 21 -15 4 -8 10 -12 15 -9 5 3 12 -2 15
-10 3 -9 17 -16 29 -16 13 0 30 -7 39 -15 8 -8 30 -15 49 -15 20 0 37 -5 39
-11 5 -16 222 -24 288 -9 30 6 71 14 90 17 19 3 39 12 43 19 4 8 22 14 38 14
17 0 28 4 25 9 -6 10 30 19 56 13 9 -2 19 -14 22 -28 4 -13 11 -24 16 -24 6 0
10 -9 10 -20 0 -12 11 -31 24 -43 13 -12 26 -32 30 -44 4 -13 12 -23 17 -23 5
0 9 -7 9 -15 0 -8 4 -15 10 -15 13 0 70 -57 70 -70 0 -5 9 -10 20 -10 12 0 31
-11 44 -25 13 -14 33 -25 45 -25 12 0 21 -6 21 -15 0 -11 11 -15 39 -15 22 0
41 -4 43 -10 2 -5 23 -13 48 -16 25 -3 49 -10 55 -15 11 -11 222 -12 211 -2
-6 6 38 19 137 40 15 3 27 12 27 19 0 8 10 14 24 14 13 0 27 7 30 16 3 8 10
12 16 9 5 -3 10 1 10 9 0 10 9 16 25 16 16 0 25 6 25 15 0 8 7 15 15 15 8 0
15 7 15 16 0 8 5 12 10 9 6 -3 10 1 10 9 0 9 7 16 15 16 8 0 15 7 15 15 0 8 7
15 15 15 9 0 15 9 15 21 0 12 11 32 25 45 14 13 25 32 25 44 0 11 7 20 15 20
11 0 15 11 15 40 0 22 5 40 10 40 6 0 10 16 10 35 0 22 6 38 15 41 11 5 15 21
15 60 l0 54 50 0 c36 0 52 -4 56 -15 4 -10 20 -15 44 -15 22 0 40 -5 42 -12 6
-18 270 -18 275 0 3 6 17 12 33 12 16 0 30 7 34 15 3 8 15 15 26 15 11 0 20 5
20 10 0 6 6 10 14 10 7 0 22 11 32 25 10 14 23 25 29 25 5 0 19 14 30 30 11
16 23 30 28 30 4 0 7 7 7 15 0 8 4 15 10 15 5 0 12 11 16 25 3 14 10 25 15 25
5 0 9 14 9 30 0 20 5 30 15 30 13 0 15 23 15 146 0 83 -4 143 -9 140 -11 -7
-21 17 -21 49 0 12 -7 25 -15 29 -8 3 -15 15 -15 26 0 11 -4 20 -10 20 -5 0
-10 4 -10 10 0 13 -86 100 -99 100 -6 0 -11 7 -11 15 0 9 -9 15 -24 15 -13 0
-26 7 -30 15 -3 8 -15 15 -26 15 -11 0 -20 5 -20 10 0 6 -13 10 -29 10 -16 0
-36 7 -45 15 -10 11 -37 15 -95 15 -65 0 -81 3 -81 15 0 8 -4 15 -10 15 -6 0
-10 41 -10 104 0 83 -3 105 -15 110 -9 3 -15 19 -15 41 0 24 -4 35 -15 35 -8
0 -15 7 -15 15 0 8 -4 15 -10 15 -5 0 -10 11 -10 25 0 14 -5 25 -11 25 -14 0
-69 55 -69 69 0 6 -11 11 -24 11 -13 0 -26 5 -28 10 -2 6 -13 12 -26 13 -12 0
-22 7 -22 14 0 8 -14 13 -40 13 -22 0 -40 5 -40 11 0 8 -27 9 -87 6 -118 -8
-166 -17 -176 -33 -4 -8 -19 -14 -32 -14 -14 0 -25 -4 -25 -10 0 -5 -11 -10
-25 -10 -14 0 -28 -6 -31 -14 -10 -26 -45 -14 -51 16 -3 15 -9 25 -14 22 -5
-2 -12 8 -15 23 -4 15 -13 34 -21 41 -7 7 -13 20 -13 28 0 8 -4 14 -10 14 -5
0 -10 11 -10 25 0 16 -6 25 -15 25 -8 0 -15 4 -15 10 0 15 -33 50 -42 44 -4
-3 -8 0 -8 6 0 14 -59 68 -82 76 -10 3 -18 10 -18 15 0 5 -7 9 -15 9 -9 0 -18
7 -21 15 -4 9 -19 15 -40 15 -19 0 -34 4 -34 10 0 5 -18 13 -40 16 -22 4 -43
11 -46 15 -7 13 -204 11 -204 -1z"/>
<path d="M6085 4370 c4 -6 -20 -10 -63 -10 -53 0 -71 -4 -76 -15 -3 -8 -17
-15 -31 -15 -14 0 -25 -4 -25 -10 0 -5 -11 -12 -25 -16 -14 -3 -25 -10 -25
-15 0 -5 -5 -9 -11 -9 -14 0 -39 -25 -39 -39 0 -6 -7 -11 -15 -11 -8 0 -15 -6
-15 -14 0 -8 -5 -16 -10 -18 -6 -2 -12 -13 -13 -26 0 -12 -7 -22 -14 -22 -10
0 -13 -32 -13 -135 0 -82 4 -135 10 -135 5 0 12 -11 16 -25 3 -14 10 -25 15
-25 5 0 9 -11 9 -25 0 -16 6 -25 15 -25 8 0 15 -6 15 -14 0 -8 11 -17 25 -20
14 -4 25 -11 25 -16 0 -6 7 -10 15 -10 8 0 15 -4 15 -10 0 -5 11 -10 24 -10
14 0 31 -7 40 -15 8 -8 26 -15 39 -15 14 0 27 -5 29 -11 2 -6 27 -14 56 -17
29 -2 52 -8 52 -13 0 -5 18 -9 40 -9 26 0 40 -5 40 -13 0 -8 14 -14 36 -15 20
-2 43 -9 51 -17 8 -8 21 -15 29 -15 12 0 19 -19 15 -42 0 -5 6 -8 14 -8 11 0
15 -12 15 -46 0 -40 -5 -52 -35 -80 -27 -27 -42 -34 -75 -34 -23 0 -39 -4 -35
-9 7 -12 -28 -23 -49 -15 -9 3 -13 10 -10 15 3 5 -22 9 -55 9 -34 0 -61 4 -61
9 0 5 -13 12 -30 16 -16 4 -30 11 -30 16 0 5 -11 9 -25 9 -16 0 -25 6 -25 15
0 8 -7 15 -15 15 -8 0 -15 4 -15 9 0 5 -9 13 -20 16 -11 4 -17 11 -14 17 4 7
2 8 -4 4 -6 -4 -20 2 -32 14 -24 24 -30 25 -30 5 0 -8 -7 -15 -15 -15 -9 0
-15 -9 -15 -21 0 -21 -50 -79 -69 -79 -6 0 -11 -7 -11 -15 0 -8 -4 -15 -10
-15 -5 0 -10 -11 -10 -25 0 -14 5 -25 10 -25 6 0 10 -7 10 -15 0 -8 9 -15 21
-15 11 0 17 -4 14 -10 -3 -5 1 -10 9 -10 8 0 21 -6 28 -12 20 -19 50 -38 71
-44 9 -4 17 -10 17 -15 0 -5 18 -12 40 -15 22 -4 40 -10 40 -15 0 -5 18 -9 40
-9 29 0 40 -4 40 -15 0 -22 311 -22 330 0 7 8 25 15 41 15 16 0 29 5 29 10 0
6 9 10 20 10 11 0 23 7 26 15 4 8 17 15 30 15 15 0 24 6 24 15 0 8 5 15 10 15
17 0 50 39 50 60 0 11 4 20 9 20 5 0 12 11 15 25 4 14 11 25 16 25 6 0 10 51
10 129 0 105 -3 130 -15 135 -8 3 -15 14 -15 25 0 27 -104 131 -131 131 -11 0
-22 7 -25 15 -4 8 -17 15 -30 15 -13 0 -24 4 -24 10 0 5 -18 13 -40 16 -22 4
-43 11 -46 15 -3 5 -20 9 -39 9 -18 0 -40 7 -49 15 -8 8 -30 15 -48 15 -19 0
-39 5 -45 11 -7 7 -24 13 -40 15 -15 1 -29 8 -31 13 -2 6 -10 11 -18 11 -8 0
-14 6 -14 14 0 8 -7 16 -15 20 -11 4 -15 20 -15 56 0 38 4 50 15 50 9 0 15 9
15 25 0 20 5 25 24 25 13 0 26 7 30 15 4 12 25 15 96 15 73 0 90 -3 90 -15 0
-11 11 -15 40 -15 22 0 40 -4 40 -10 0 -5 11 -10 25 -10 14 0 28 -7 31 -15 4
-8 14 -15 24 -15 10 0 20 -6 23 -13 7 -18 57 -20 57 -2 0 8 4 15 9 15 5 0 12
11 15 25 4 14 11 25 16 25 6 0 10 7 10 15 0 8 6 15 13 15 11 0 37 43 37 63 0
12 -26 37 -39 37 -6 0 -11 7 -11 15 0 9 -9 15 -25 15 -14 0 -25 4 -25 9 0 5
-13 12 -30 16 -16 4 -30 10 -30 15 0 4 -18 10 -40 14 -22 3 -40 11 -40 16 0 6
-31 10 -71 10 -44 0 -68 4 -64 10 4 6 -18 10 -60 10 -42 0 -64 -4 -60 -10z"/>
<path d="M3260 3735 l0 -625 130 0 130 0 0 200 0 200 110 0 c91 0 110 -3 110
-15 0 -8 7 -15 15 -15 9 0 15 -9 15 -25 0 -16 6 -25 16 -25 8 0 12 -5 9 -10
-3 -6 0 -13 8 -16 8 -3 18 -13 21 -22 8 -26 28 -54 54 -77 12 -11 22 -26 22
-33 0 -7 11 -23 24 -35 13 -12 26 -31 30 -42 3 -11 19 -35 35 -53 l30 -32 150
0 c128 0 151 2 151 15 0 8 -4 15 -10 15 -5 0 -12 11 -16 25 -3 14 -10 25 -15
25 -5 0 -9 7 -9 15 0 8 -7 15 -15 15 -8 0 -15 7 -15 15 0 8 -4 15 -10 15 -5 0
-12 11 -16 25 -3 14 -10 22 -15 19 -5 -3 -9 4 -9 16 0 12 -4 18 -10 15 -5 -3
-10 1 -10 10 0 8 -9 23 -19 32 -11 9 -18 20 -15 25 3 4 -2 8 -10 8 -10 0 -16
9 -16 26 0 15 -4 23 -11 19 -6 -4 -13 2 -16 14 -3 12 -9 21 -14 21 -5 0 -9 7
-9 15 0 8 -6 15 -13 15 -7 0 -14 13 -15 30 -2 22 2 30 13 30 9 0 13 5 10 10
-4 6 7 10 24 10 21 0 31 5 31 15 0 8 5 15 11 15 6 0 17 6 25 14 8 8 14 19 14
25 0 6 7 11 15 11 8 0 15 8 15 19 0 10 7 24 15 31 8 7 13 16 10 20 -3 5 3 16
12 26 15 15 18 39 17 181 0 107 -3 167 -10 171 -6 4 -14 17 -18 30 -4 12 -12
22 -17 22 -5 0 -9 5 -9 11 0 16 -89 99 -106 99 -9 0 -22 7 -30 15 -9 8 -29 15
-45 15 -16 0 -29 4 -29 9 0 5 -50 12 -111 16 -69 5 -106 11 -98 16 8 5 -96 9
-248 9 l-263 0 0 -625z m630 373 c22 -7 40 -19 40 -26 0 -7 4 -11 9 -8 5 3 16
-5 25 -19 12 -18 16 -49 16 -120 0 -95 0 -96 -32 -128 -59 -58 -75 -62 -257
-62 l-166 0 -3 188 -2 187 165 0 c104 0 180 -5 205 -12z"/>
<path d="M4566 4338 c-3 -13 -6 -294 -6 -625 l0 -603 455 0 455 0 0 104 c0 57
-3 111 -6 120 -5 14 -43 16 -320 16 l-314 0 0 135 0 135 275 0 275 0 0 115 0
115 -275 0 -275 0 0 135 0 135 305 0 305 0 0 120 0 120 -434 0 -434 0 -6 -22z"/>
<path d="M6780 4240 l0 -120 170 0 170 0 0 -505 0 -505 133 0 132 0 -2 483
c-1 266 1 493 4 505 5 22 9 22 184 22 l179 0 0 103 c-1 69 -5 108 -14 120 -12
16 -47 17 -485 17 l-471 0 0 -120z"/>
<path d="M8820 4336 c0 -13 -4 -26 -10 -28 -5 -1 -11 -14 -13 -27 -2 -14 -9
-27 -15 -29 -7 -2 -12 -15 -12 -28 0 -15 -6 -24 -15 -24 -11 0 -15 -11 -15
-40 0 -22 -4 -40 -10 -40 -5 0 -10 -11 -10 -25 0 -16 -6 -25 -15 -25 -10 0
-15 -10 -15 -30 0 -20 -5 -30 -15 -30 -10 0 -15 -10 -15 -34 0 -19 -4 -36 -10
-38 -5 -1 -11 -14 -13 -27 -2 -14 -9 -27 -15 -29 -7 -2 -12 -15 -12 -28 0 -14
-7 -27 -15 -30 -8 -4 -15 -19 -15 -34 0 -16 -4 -32 -10 -35 -5 -3 -10 -17 -10
-31 0 -14 -7 -27 -15 -30 -8 -4 -15 -17 -15 -30 0 -15 -6 -24 -15 -24 -10 0
-15 -10 -15 -34 0 -19 -4 -36 -10 -38 -5 -1 -11 -15 -12 -30 -1 -16 -8 -28
-15 -28 -8 0 -13 -12 -13 -30 0 -16 -4 -30 -8 -30 -9 0 -37 -61 -46 -102 -4
-16 -11 -28 -16 -28 -6 0 -10 -11 -10 -25 0 -14 -4 -25 -9 -25 -5 0 -12 -13
-16 -30 -4 -16 -11 -30 -17 -30 -6 0 -9 -3 -5 -6 8 -8 -13 -64 -24 -64 -5 0
-9 -7 -9 -15 0 -13 23 -15 145 -15 l145 0 0 26 c0 14 7 32 15 40 8 9 15 26 15
40 0 13 5 24 10 24 6 0 10 9 10 19 0 11 7 26 15 35 8 8 15 24 15 35 0 12 5 21
10 21 6 0 10 7 10 15 0 13 37 15 270 15 233 0 270 -2 270 -15 0 -8 7 -15 16
-15 8 0 13 -4 10 -8 -3 -5 1 -20 9 -35 7 -14 16 -40 20 -58 5 -23 10 -28 16
-18 6 9 9 0 9 -28 0 -32 4 -43 15 -43 9 0 15 -9 15 -25 l0 -25 140 0 c118 0
140 2 140 15 0 8 -4 15 -10 15 -5 0 -10 11 -10 25 0 14 -5 25 -11 25 -5 0 -8
4 -4 9 3 5 1 12 -5 16 -5 3 -10 17 -10 31 0 13 -4 24 -9 24 -5 0 -12 11 -15
25 -4 14 -11 25 -16 25 -6 0 -10 12 -10 26 0 14 -7 32 -15 40 -8 9 -15 26 -15
40 0 13 -4 24 -10 24 -5 0 -10 14 -10 30 0 20 -5 30 -15 30 -9 0 -15 10 -15
26 0 14 -7 32 -15 40 -8 9 -15 26 -15 40 0 13 -4 24 -10 24 -5 0 -10 11 -10
24 0 13 -7 26 -15 30 -8 3 -15 15 -15 26 0 12 -7 28 -15 36 -8 9 -15 26 -15
40 0 13 -4 24 -10 24 -5 0 -10 14 -10 30 0 20 -5 30 -15 30 -10 0 -15 10 -15
30 0 17 -4 30 -10 30 -5 0 -12 11 -16 25 -3 14 -10 25 -14 25 -5 0 -10 17 -12
38 -2 23 -8 36 -15 34 -8 -1 -13 9 -13 28 0 17 -4 30 -10 30 -5 0 -10 9 -10
19 0 11 -7 26 -15 35 -9 8 -16 18 -15 21 2 39 -2 55 -15 55 -10 0 -15 10 -15
30 0 17 -4 30 -10 30 -5 0 -12 11 -16 25 l-6 25 -129 0 -129 0 0 -24z m160
-401 c0 -16 6 -25 15 -25 10 0 15 -10 15 -29 0 -16 5 -31 10 -33 6 -2 13 -17
16 -33 3 -17 9 -31 15 -33 5 -2 9 -17 9 -33 0 -19 5 -29 15 -29 9 0 15 -9 15
-25 0 -14 5 -25 11 -25 6 0 9 -12 7 -27 l-3 -28 -155 0 -155 0 3 25 c1 14 7
27 12 28 6 2 10 14 10 26 0 12 5 27 10 32 6 6 13 24 16 40 3 16 9 31 15 32 5
2 9 15 9 28 0 15 6 24 15 24 10 0 15 10 15 29 0 16 4 31 10 33 5 2 11 12 13
23 1 11 6 26 10 33 13 20 47 -4 47 -33z"/>
<path d="M9780 3735 l0 -625 130 0 130 0 2 173 3 172 133 3 c72 1 132 6 132
11 0 5 35 11 77 13 45 3 79 10 81 17 2 6 21 11 43 11 28 0 39 4 39 15 0 9 9
15 24 15 13 0 27 7 30 16 3 8 10 12 16 9 5 -3 10 -1 10 6 0 6 11 22 25 35 14
13 25 26 25 29 0 4 7 13 15 21 8 9 15 26 15 39 0 13 4 25 9 27 7 2 19 61 20
106 1 7 6 10 11 7 6 -4 10 21 10 69 0 47 -4 76 -12 78 -6 2 -13 30 -16 61 -2
31 -8 57 -13 57 -5 0 -9 11 -9 25 0 16 -6 25 -15 25 -9 0 -15 9 -15 25 0 14
-5 25 -11 25 -13 0 -39 25 -39 38 0 5 -11 13 -25 16 -14 4 -25 11 -25 16 0 6
-11 10 -25 10 -14 0 -25 4 -25 10 0 5 -12 13 -27 16 -16 4 -31 12 -35 18 -5 7
-8 6 -8 -4 0 -10 -3 -11 -8 -4 -6 10 -104 23 -175 24 -16 0 -26 4 -22 10 4 7
-77 10 -234 10 l-241 0 0 -625z m564 376 c3 -4 19 -11 36 -14 17 -4 44 -20 60
-37 30 -30 30 -32 30 -145 0 -63 -4 -115 -9 -115 -5 0 -12 -11 -15 -25 -4 -14
-11 -25 -16 -25 -6 0 -10 -7 -10 -15 0 -9 -10 -15 -26 -15 -14 0 -32 -7 -41
-15 -12 -13 -41 -15 -161 -13 l-147 3 -3 213 -2 212 149 0 c82 0 152 -4 155
-9z"/>
<path d="M10980 3735 l0 -625 130 0 130 0 0 625 0 625 -130 0 -130 0 0 -625z"/>
</g>
</svg>
